<?xml version="1.0" encoding="UTF-8"?>
<svg version="1.1" xmlns="http://www.w3.org/2000/svg" width="512" height="512">
<path d="M0 0 C1.02901932 -0.0071553 2.05803864 -0.01431061 3.11824036 -0.02168274 C4.25176437 -0.02437164 5.38528839 -0.02706055 6.55316162 -0.02983093 C7.7435051 -0.03640213 8.93384857 -0.04297333 10.16026306 -0.04974365 C14.11381383 -0.06951323 18.06735136 -0.08114775 22.02093506 -0.09111023 C23.38223033 -0.0951578 24.7435254 -0.09927472 26.10482025 -0.10346031 C32.50137498 -0.12251467 38.89791816 -0.1367442 45.29449582 -0.14507228 C52.6755773 -0.15484092 60.05635858 -0.18114926 67.4373343 -0.22157317 C73.14358086 -0.25175103 78.84974147 -0.26654279 84.55606627 -0.26985329 C87.96350019 -0.27220227 91.3706135 -0.2811418 94.77796173 -0.30631447 C98.58217894 -0.33060292 102.38560973 -0.32975909 106.18988037 -0.32279968 C107.31530746 -0.33560974 108.44073456 -0.3484198 109.6002655 -0.36161804 C115.76942761 -0.32043993 119.45555152 -0.01383758 124.13031006 4.14717102 C128.90142219 9.56302803 129.55181179 12.89392694 129.46624756 20.02998352 C128.97162838 24.61958942 127.5508799 28.01164866 124.13031006 31.14717102 C118.37651277 34.99789471 113.43714144 35.68540818 106.63031006 35.39717102 C105.80788818 35.37912415 104.98546631 35.36107727 104.13812256 35.34248352 C102.13500201 35.29589932 100.13249185 35.22417801 98.13031006 35.14717102 C98.13031006 40.75717102 98.13031006 46.36717102 98.13031006 52.14717102 C99.81511475 52.12622375 101.49991943 52.10527649 103.23577881 52.08369446 C108.82759346 52.0189669 114.41935399 51.97312975 120.01144409 51.93992233 C123.39909964 51.91912431 126.78634662 51.89095215 130.17376709 51.84541321 C134.07605652 51.79672409 137.97777158 51.77416173 141.88031006 51.75654602 C143.0858252 51.73590088 144.29134033 51.71525574 145.53338623 51.69398499 C153.25348605 51.69194003 158.95741873 52.20830495 164.70591736 57.63441467 C169.77036189 64.06752161 168.75753932 72.27558771 168.61859131 80.02217102 C168.60925192 81.5577224 168.60214113 83.0932888 168.59715271 84.62886047 C168.57817094 88.64708965 168.52914896 92.66439793 168.47363281 96.68226624 C168.42224788 100.7915349 168.39959787 104.90095411 168.37445068 109.01045227 C168.3210193 117.05644518 168.23581652 125.10169316 168.13031006 133.14717102 C169.27507812 133.12622375 170.41984619 133.10527649 171.5993042 133.08369446 C175.86886969 133.01099301 180.13838105 132.96526223 184.40838623 132.92744446 C186.25223 132.90739741 188.09601074 132.88015222 189.93963623 132.84541321 C192.59840496 132.79658894 195.25632921 132.7741333 197.91546631 132.75654602 C198.7324147 132.73590088 199.5493631 132.71525574 200.3910675 132.69398499 C206.13509398 132.6917609 209.39338931 133.86837315 214.13031006 137.14717102 C219.2803529 142.43640421 220.38959449 147.84803066 220.32562256 155.07685852 C220.31917725 156.36592102 220.31273193 157.65498352 220.30609131 158.98310852 C220.28938469 160.32946544 220.27245485 161.67581961 220.25531006 163.02217102 C220.2452667 164.39195619 220.23614323 165.76174844 220.22796631 167.13154602 C220.20445492 170.4701636 220.16858564 173.80869007 220.13031006 177.14717102 C225.41031006 177.14717102 230.69031006 177.14717102 236.13031006 177.14717102 C236.09550537 174.9789679 236.06070068 172.81076477 236.02484131 170.57685852 C236.00140207 168.46196304 235.98321051 166.34708239 235.96551514 164.23213196 C235.9504881 162.76950027 235.93006051 161.3069132 235.9039917 159.84443665 C235.86733739 157.73429822 235.8505233 155.62475876 235.83734131 153.51435852 C235.82163086 152.24704895 235.80592041 150.97973938 235.78973389 149.67402649 C236.31391592 144.24583034 238.09674817 141.13579543 242.00531006 137.39717102 C247.33092908 133.56272532 250.90379175 132.60430557 257.40008545 133.49116516 C260.25582703 134.17732966 261.94975988 135.0748328 264.34515381 136.74482727 C265.12326416 137.28639465 265.90137451 137.82796204 266.70306396 138.38594055 C270.83601882 141.38484785 274.89990837 144.46570754 278.94281006 147.58467102 C280.79255383 149.00331367 282.64282784 150.42126518 284.49359131 151.83857727 C285.42767822 152.55416809 286.36176514 153.26975891 287.32415771 154.0070343 C291.73845606 157.37363769 296.18402104 160.69800614 300.63031006 164.02217102 C303.0565602 165.84120838 305.48220176 167.66105407 307.90765381 169.4811554 C309.33608152 170.55184858 310.7656735 171.62099121 312.19671631 172.68818665 C314.01246972 174.04358237 315.82217337 175.40664021 317.63031006 176.77217102 C318.60999756 177.50693665 319.58968506 178.24170227 320.59906006 178.99873352 C324.13220193 181.9975422 326.65586408 184.72383307 328.13031006 189.14717102 C328.22887095 190.89473559 328.26958087 192.64580952 328.27748108 194.39613342 C328.28821404 196.02790527 328.28821404 196.02790527 328.29916382 197.69264221 C328.30319717 199.48336151 328.30319717 199.48336151 328.30731201 201.31025696 C328.31716881 203.19599426 328.31716881 203.19599426 328.32722473 205.11982727 C328.34824675 209.29038724 328.35862588 213.4609475 328.36859131 217.63154602 C328.37263966 219.0686622 328.37675661 220.50577819 328.38094139 221.94289398 C328.39998957 228.69558285 328.41422096 235.44826081 328.42255336 242.20097136 C328.43232254 249.98896936 328.45863501 257.77668289 328.49905425 265.56458068 C328.52924254 271.58848233 328.54402482 277.61230257 328.54733437 283.63627839 C328.54968194 287.23207619 328.55860342 290.82756997 328.58379555 294.42328644 C328.61146814 298.43787454 328.60723692 302.45182947 328.60028076 306.46650696 C328.61309082 307.6522229 328.62590088 308.83793884 328.63909912 310.05958557 C328.58751816 318.22426377 327.42083931 322.65931668 321.72015381 328.70185852 C320.40724365 329.85041321 320.40724365 329.85041321 319.06781006 331.02217102 C318.09843506 331.87424133 317.12906006 332.72631165 316.13031006 333.60420227 C312.39979168 336.76639949 308.61938018 339.86095698 304.81390381 342.93232727 C302.18322449 345.10349929 299.65088581 347.34958459 297.13031006 349.64717102 C292.83307848 353.56363525 288.37731075 357.23480708 283.85687256 360.88935852 C281.16904838 363.11509258 278.58183986 365.41899364 276.00531006 367.77217102 C261.92071066 380.5763523 261.92071066 380.5763523 250.91937256 380.41670227 C246.02459348 379.9436774 243.05555166 378.23056352 239.74237061 374.6452179 C235.07749634 368.20017455 235.5535315 361.84784155 235.81781006 354.14717102 C235.84036865 352.89549133 235.86292725 351.64381165 235.88616943 350.35420227 C235.94474826 347.28467198 236.03441658 344.21576225 236.13031006 341.14717102 C230.85031006 341.14717102 225.57031006 341.14717102 220.13031006 341.14717102 C220.18831787 342.8358429 220.24632568 344.52451477 220.30609131 346.26435852 C220.35301998 348.51693485 220.39851678 350.76954133 220.44281006 353.02217102 C220.48470459 354.13076477 220.52659912 355.23935852 220.56976318 356.38154602 C220.67812359 363.75005376 220.00455388 370.30616288 215.13031006 376.14717102 C209.96683561 379.65619094 206.09268609 380.73022376 199.81878662 380.65510559 C198.60440855 380.66446553 198.60440855 380.66446553 197.36549759 380.67401457 C194.66700916 380.68990218 191.96942934 380.67735721 189.27093506 380.66474915 C187.33054072 380.67017215 185.39015051 380.67729581 183.44976807 380.68598938 C178.18944681 380.70420435 172.92943982 380.69716265 167.66911316 380.68447304 C162.16040204 380.67433597 156.65171757 380.68374069 151.14300537 380.6900177 C141.89263078 380.69729203 132.64238399 380.68771197 123.39202881 380.6686554 C112.70202517 380.64688713 102.01232671 380.65393865 91.32233047 380.67596102 C82.13911454 380.69412107 72.95599039 380.69667035 63.7727623 380.68620634 C58.29020944 380.67997477 52.80779996 380.67912662 47.32525635 380.69235229 C42.17052445 380.7039189 37.01618548 380.69587002 31.86149597 380.67277527 C29.97129468 380.66749254 28.08106024 380.66899448 26.19087219 380.67782593 C23.60741501 380.68878236 21.02521116 380.67501724 18.4418335 380.65510559 C17.32396894 380.66848992 17.32396894 380.66848992 16.18352127 380.68214464 C10.02431878 380.59027625 5.93608185 378.65366565 1.36102295 374.56660461 C0.94586426 374.0646759 0.53070557 373.56274719 0.10296631 373.04560852 C-0.37455078 372.47858215 -0.85206787 371.91155579 -1.34405518 371.3273468 C-1.82688965 370.73163879 -2.30972412 370.13593079 -2.80718994 369.52217102 C-3.32805176 368.89681458 -3.84891357 368.27145813 -4.38555908 367.62715149 C-5.8928603 365.81036725 -7.38432553 363.98190987 -8.86968994 362.14717102 C-9.56062744 361.29638977 -10.25156494 360.44560852 -10.96343994 359.56904602 C-12.21399315 358.01115346 -13.45860712 356.44847822 -14.69781494 354.88154602 C-17.4578199 351.40671964 -20.25653148 347.96426132 -23.05718994 344.52217102 C-23.890448 343.49760803 -23.890448 343.49760803 -24.74053955 342.4523468 C-25.88162135 341.04942296 -27.0228171 339.6465918 -28.16412354 338.24385071 C-31.4346362 334.22335789 -34.70233293 330.20057513 -37.96929932 326.17720032 C-40.81096649 322.67820339 -43.65618712 319.18217328 -46.50640869 315.69013977 C-47.1006665 314.96117493 -47.69492432 314.23221008 -48.30718994 313.4811554 C-49.44803627 312.08183607 -50.58991403 310.68335684 -51.73297119 309.2858429 C-52.24601807 308.65613586 -52.75906494 308.02642883 -53.28765869 307.37763977 C-53.73907227 306.82487366 -54.19048584 306.27210754 -54.65557861 305.70259094 C-55.7990621 304.23765363 -56.83884327 302.69344103 -57.86968994 301.14717102 C-59.78310275 300.68676744 -59.78310275 300.68676744 -62.0088501 300.74653625 C-62.86379059 300.73319748 -63.71873108 300.7198587 -64.59957886 300.70611572 C-65.52660614 300.70599991 -66.45363342 300.70588409 -67.40875244 300.70576477 C-68.36357513 300.69255692 -69.31839783 300.67934906 -70.30215454 300.66574097 C-73.36636179 300.62473804 -76.43027007 300.60316611 -79.49468994 300.58467102 C-82.53759221 300.56081174 -85.58021562 300.5325014 -88.62295532 300.4928894 C-90.51724587 300.46872941 -92.4116824 300.45371116 -94.30612183 300.44927979 C-101.13067129 300.36972519 -108.43230508 300.15140275 -113.74468994 295.33467102 C-114.29898682 294.85385071 -114.85328369 294.3730304 -115.42437744 293.87763977 C-119.66839082 288.79629403 -119.13252336 283.08486889 -119.06500244 276.81513977 C-119.06217255 275.82339249 -119.05934265 274.8316452 -119.056427 273.80984497 C-119.04525798 270.65132943 -119.02015921 267.49310045 -118.99468994 264.33467102 C-118.98465591 262.18949283 -118.9755308 260.04431019 -118.96734619 257.89912415 C-118.94703343 252.64827465 -118.9078781 247.39804253 -118.86968994 242.14717102 C-128.76968994 242.14717102 -138.66968994 242.14717102 -148.86968994 242.14717102 C-148.82328369 245.80810852 -148.77687744 249.46904602 -148.72906494 253.24092102 C-148.69783466 256.80210485 -148.67356652 260.36327318 -148.64996338 263.92451477 C-148.629897 266.3920326 -148.6026375 268.85950317 -148.56793213 271.32685852 C-148.51919688 274.88166495 -148.49667055 278.43584046 -148.47906494 281.99092102 C-148.4584198 283.08706726 -148.43777466 284.1832135 -148.41650391 285.31257629 C-148.41441617 292.50247675 -149.27617883 298.29019535 -154.31738281 303.70100403 C-158.94395625 307.82495401 -162.60087142 308.51965339 -168.71343994 308.42842102 C-173.87646349 307.75498317 -177.77207607 305.30107278 -181.30718994 301.58467102 C-184.05555865 297.29721583 -184.01810467 293.50469111 -184.01686096 288.58241272 C-184.02053765 287.80482991 -184.02421434 287.02724709 -184.02800244 286.22610116 C-184.03904358 283.61221937 -184.04288384 280.99837733 -184.04669189 278.38447571 C-184.0529562 276.51364007 -184.05960297 274.64280568 -184.06660461 272.77197266 C-184.08401678 267.68300395 -184.0945669 262.59404464 -184.10281014 257.50505352 C-184.10795968 254.32614923 -184.11403543 251.14724787 -184.12032127 247.96834564 C-184.13937368 238.02378636 -184.1536049 228.07923451 -184.16193324 218.13466048 C-184.17170784 206.65251065 -184.19803304 195.17055349 -184.23843414 183.68847156 C-184.26858479 174.81533733 -184.28340111 165.94225837 -184.28671426 157.06907392 C-184.28906585 151.76863133 -184.29804071 146.46839457 -184.32317543 141.1680069 C-184.34644283 136.18081094 -184.35069469 131.19395651 -184.34041405 126.20672035 C-184.33991826 124.37778144 -184.34625131 122.5488258 -184.35997009 120.71993828 C-184.37767459 118.21950467 -184.37059056 115.72029868 -184.35743713 113.21986389 C-184.36840638 112.49912902 -184.37937563 111.77839414 -184.39067727 111.03581882 C-184.32144136 105.57001192 -182.90093411 102.54139758 -179.86968994 98.14717102 C-174.88687418 94.43448477 -170.12455376 92.85882623 -163.86968994 93.14717102 C-159.15525335 94.64007594 -155.32864362 96.59213529 -151.86968994 100.14717102 C-148.65939653 106.87211974 -148.47042131 112.70956822 -148.57672119 120.08467102 C-148.58096603 121.20534973 -148.58521088 122.32602844 -148.58958435 123.48066711 C-148.60628683 127.03641976 -148.64392426 130.59159161 -148.68218994 134.14717102 C-148.69724763 136.56773571 -148.71093414 138.98830935 -148.72320557 141.40888977 C-148.75360221 147.32205031 -148.81234204 153.2339657 -148.86968994 159.14717102 C-138.96968994 159.14717102 -129.06968994 159.14717102 -118.86968994 159.14717102 C-118.92769775 156.06373352 -118.98570557 152.98029602 -119.04547119 149.80342102 C-119.0845283 146.79823882 -119.11485213 143.7930855 -119.14434814 140.78779602 C-119.169405 138.708239 -119.20346015 136.62876929 -119.24688721 134.54951477 C-119.3079284 131.55059708 -119.33598836 128.55284924 -119.35797119 125.55342102 C-119.38377762 124.63226501 -119.40958405 123.71110901 -119.43617249 122.76203918 C-119.43891068 116.37933411 -118.22215364 111.93803239 -113.86968994 107.14717102 C-108.99653244 102.90919043 -104.11389632 102.59450855 -97.87359619 102.75654602 C-97.04005112 102.76220581 -96.20650604 102.7678656 -95.34770203 102.7736969 C-92.70859162 102.79592907 -90.07088375 102.84609797 -87.43218994 102.89717102 C-85.63338155 102.91725315 -83.83455168 102.93550091 -82.03570557 102.95185852 C-77.64650061 102.99575031 -73.25833233 103.06468371 -68.86968994 103.14717102 C-68.88540039 102.16434143 -68.90111084 101.18151184 -68.91729736 100.16889954 C-68.97204577 96.48441426 -69.00620135 92.79996413 -69.03448486 89.1151886 C-69.04947008 87.52756176 -69.0698654 85.93997559 -69.0960083 84.35249329 C-69.39150795 65.9330149 -69.39150795 65.9330149 -64.11968994 57.27217102 C-59.26156494 52.68394185 -54.1495481 51.77133092 -47.64923096 51.80659485 C-46.96545883 51.80615677 -46.28168671 51.80571869 -45.57719421 51.80526733 C-43.34235952 51.80733863 -41.10829798 51.83058914 -38.87359619 51.85420227 C-37.31418772 51.85980417 -35.75477394 51.86407146 -34.19535828 51.86706543 C-30.10998717 51.87846753 -26.02494088 51.90789412 -21.93969727 51.94117737 C-17.76341138 51.97197879 -13.58707253 51.9855922 -9.41070557 52.00068665 C-1.23020205 52.03276892 6.94997605 52.08549829 15.13031006 52.14717102 C15.13031006 46.53717102 15.13031006 40.92717102 15.13031006 35.14717102 C13.92374756 35.19357727 12.71718506 35.23998352 11.47406006 35.28779602 C9.8595017 35.32534389 8.24491628 35.36174079 6.63031006 35.39717102 C5.4430835 35.44744446 5.4430835 35.44744446 4.23187256 35.49873352 C-1.61536028 35.5945898 -6.01836343 34.50171551 -10.86968994 31.14717102 C-14.91370305 27.11594771 -16.68357939 23.12945249 -16.99468994 17.41279602 C-16.73019038 12.61874142 -15.49934044 8.87843945 -12.17828369 5.35029602 C-8.0772828 1.75442885 -5.52640213 0.02631688 0 0 Z " fill="#000000" transform="translate(183.86968994140625,65.85282897949219)"/>
</svg>
