<?xml version="1.0" encoding="UTF-8"?>
<svg version="1.1" xmlns="http://www.w3.org/2000/svg" width="512" height="490">
<path d="M0 0 C3.67245134 1.39553984 7.08745311 3.03951429 10.54296875 4.90625 C12.13902954 5.76657837 12.13902954 5.76657837 13.76733398 6.64428711 C14.89598877 7.25667236 16.02464355 7.86905762 17.1875 8.5 C18.37112356 9.14015069 19.5547992 9.78020512 20.73852539 10.42016602 C29.36038561 15.08702823 37.94440875 19.81871856 46.50097656 24.60400391 C51.60024815 27.4525419 56.70677929 30.28804304 61.8125 33.125 C62.95726807 33.76115234 64.10203613 34.39730469 65.28149414 35.05273438 C77.28769963 41.72223425 89.31459094 48.35413091 101.34277344 54.98388672 C106.79425705 57.98883755 112.24430274 60.99639451 117.69445801 64.00375366 C119.49125066 64.99517237 121.28809624 65.98649509 123.08496094 66.9777832 C128.68972236 70.06982391 134.29427062 73.16224932 139.89813232 76.25592041 C142.51200839 77.6989099 145.1259954 79.14169833 147.73999023 80.58447266 C148.97230445 81.26471138 150.2045658 81.9450459 151.43676758 82.62548828 C158.94602182 86.77218782 166.46473564 90.90074017 174 95 C172.76207322 98.97967307 171.31274247 102.54925741 169.3125 106.203125 C168.78414551 107.17354736 168.25579102 108.14396973 167.71142578 109.14379883 C167.14665527 110.16884521 166.58188477 111.1938916 166 112.25 C165.41331543 113.32338623 164.82663086 114.39677246 164.22216797 115.50268555 C162.4874562 118.67180689 160.74546737 121.83679198 159 125 C158.5555957 125.8058252 158.11119141 126.61165039 157.65332031 127.44189453 C155.25597596 131.78211497 152.84249657 136.11319953 150.42529297 140.44238281 C148.14919689 144.52672377 145.88470633 148.61749202 143.6184082 152.70727539 C141.6925835 156.17833761 139.76083039 159.6460464 137.828125 163.11328125 C135.31684929 167.61996524 132.82936242 172.13853862 130.359375 176.66796875 C129.21900857 178.73712169 128.07839537 180.80613866 126.9375 182.875 C126.42598389 183.82528076 125.91446777 184.77556152 125.38745117 185.75463867 C121.91383926 192.01147999 118.75150078 196.16593295 112.1875 199.375 C102.34547904 201.30480803 95.20210835 196.92349264 86.875 192.25 C85.63053843 191.56602582 84.38541034 190.88326308 83.13964844 190.20166016 C79.41408521 188.15627763 75.70496324 186.08241554 72 184 C70.95811523 183.41508789 69.91623047 182.83017578 68.84277344 182.22753906 C65.03828434 180.08617322 61.23785679 177.9379666 57.44482422 175.77636719 C50.67891149 171.92393211 43.85624974 168.18897848 37 164.5 C29.15447752 160.27836171 21.36627244 155.97235589 13.625 151.5625 C5.47793015 146.92304069 -2.73372069 142.42340455 -11 138 C-15.33597002 135.67153769 -19.66926868 133.33819133 -24 131 C-25.09135254 130.41089844 -26.18270508 129.82179687 -27.30712891 129.21484375 C-30.4836858 127.4908737 -33.64939763 125.74850956 -36.8125 124 C-37.76705078 123.484375 -38.72160156 122.96875 -39.70507812 122.4375 C-45.9722429 118.94208784 -50.15782065 115.76809412 -53.375 109.1875 C-54.91250888 101.34620469 -52.5669027 95.14419906 -48.75 88.375 C-48.30817383 87.56361572 -47.86634766 86.75223145 -47.41113281 85.91625977 C-45.95978778 83.26642514 -44.48394152 80.63170734 -43 78 C-42.49855469 77.10941895 -41.99710937 76.21883789 -41.48046875 75.30126953 C-39.36295658 71.54804623 -37.24012938 67.79793964 -35.10717773 64.0534668 C-30.28204838 55.56532166 -25.64772709 46.9811202 -21.03808594 38.37451172 C-16.45594872 29.8245373 -11.77183515 21.33641076 -7.04003906 12.86865234 C-4.66212982 8.59623044 -2.32942004 4.29901096 0 0 Z M40 74 C34.09512266 80.25459673 31.53548626 87.00212824 30.625 95.5 C31.73998887 105.90656278 35.62912762 113.59168533 43.6875 120.3125 C50.46934798 125.04041688 58.35108562 126.83670402 66.515625 125.640625 C73.49356784 123.84128125 79.3193436 120.50665459 84 115 C84.70125 114.236875 85.4025 113.47375 86.125 112.6875 C91.31011855 105.25549674 91.96779295 97.86966287 91 89 C88.57064906 79.80584108 84.15071092 74.49585989 76.31640625 69.33203125 C64.30619618 62.42565413 49.92084546 64.21232025 40 74 Z " fill="#000000" transform="translate(304,67)"/>
<path d="M0 0 C3.78888487 1.4336204 7.29762541 3.15479491 10.859375 5.08203125 C11.97570312 5.68466797 13.09203125 6.28730469 14.2421875 6.90820312 C15.39976562 7.53662109 16.55734375 8.16503906 17.75 8.8125 C18.89210938 9.42931641 20.03421875 10.04613281 21.2109375 10.68164062 C27.49654872 14.08092807 33.7641146 17.5102948 40 21 C38.6761925 25.34785872 36.98027374 29.1233251 34.76171875 33.0859375 C34.28582809 33.94138657 34.28582809 33.94138657 33.80032349 34.81411743 C33.11998713 36.0359742 32.43743001 37.25659667 31.75283813 38.47607422 C30.67253506 40.40167446 29.59930889 42.33105942 28.52807617 44.26171875 C27.06444607 46.89910873 25.59919298 49.53558006 24.13183594 52.17089844 C23.77472534 52.81232788 23.41761475 53.45375732 23.04968262 54.11462402 C22.70328735 54.7367981 22.35689209 55.35897217 22 56 C8.76480024 79.77815648 -2.87075174 100.81620501 4.33544922 128.76611328 C5.93012337 134.12660868 8.02650941 139.3259802 10.13085938 144.50366211 C18.66937631 165.66565535 17.55701641 188.57361844 9.44140625 209.72265625 C5.30516436 219.12728212 -0.25361559 227.2842322 -7 235 C-7.88751953 236.03060547 -7.88751953 236.03060547 -8.79296875 237.08203125 C-22.75551799 252.17587446 -44.35508289 261.40050136 -64.70703125 262.34765625 C-89.40709012 262.96130973 -111.52488186 256.49638841 -129.80078125 239.1328125 C-130.88939453 238.07707031 -130.88939453 238.07707031 -132 237 C-132.61230469 236.46117187 -133.22460938 235.92234375 -133.85546875 235.3671875 C-147.81712011 222.65154164 -155.94003754 202.02246823 -157.1640625 183.52001953 C-158.24471304 159.16485806 -151.96515149 135.51469073 -135.25 117.1875 C-120.06748252 101.20363647 -101.79391016 93.31960436 -80.5 89.0625 C-68.24739233 86.58583182 -57.85336413 82.89585105 -48 75 C-47.21753906 74.38125 -46.43507813 73.7625 -45.62890625 73.125 C-36.00807942 65.07790033 -30.39331996 54.45607486 -24.5 43.5625 C-23.81179972 42.30138475 -23.12290352 41.04064905 -22.43334961 39.78027344 C-21.00803015 37.17445801 -19.58504794 34.56738772 -18.16357422 31.95947266 C-14.98848117 26.14125153 -11.77736198 20.34302573 -8.56005859 14.54806519 C-7.57472381 12.77203301 -6.59193944 10.99460697 -5.609375 9.21704102 C-5.01769531 8.15026123 -4.42601562 7.08348145 -3.81640625 5.984375 C-3.29506104 5.04303711 -2.77371582 4.10169922 -2.23657227 3.13183594 C-1 1 -1 1 0 0 Z M-112 138 C-112.86818359 138.84884766 -112.86818359 138.84884766 -113.75390625 139.71484375 C-122.8489501 149.42730572 -126.75817085 162.81434929 -127.4375 175.875 C-126.81443457 192.31850947 -119.86039161 206.75473405 -108 218 C-96.82969052 227.40947251 -82.9769724 232.6248994 -68.37109375 232.30859375 C-56.64995186 231.23562711 -46.68355504 227.75320121 -37 221 C-36.00419922 220.30777344 -36.00419922 220.30777344 -34.98828125 219.6015625 C-24.41992128 211.38436576 -17.41781414 198.00355761 -15 185 C-13.86931366 174.17611187 -14.85584603 164.11338236 -19 154 C-19.32742188 153.14277344 -19.65484375 152.28554688 -19.9921875 151.40234375 C-25.89375128 137.8115162 -37.8919053 128.20573207 -51.3046875 122.625 C-74.0258116 115.06878321 -95.27942279 121.56524462 -112 138 Z " fill="#000000" transform="translate(303,228)"/>
<path d="M0 0 C2.75758289 1.40629583 3.47277225 3.20333434 4.88085938 5.93774414 C5.43273926 6.98929688 5.98461914 8.04084961 6.55322266 9.12426758 C7.13700684 10.26669922 7.72079102 11.40913086 8.32226562 12.58618164 C9.25610301 14.37504322 10.19518079 16.16108315 11.13482666 17.94689941 C11.77601214 19.16563846 12.41576941 20.3851299 13.05413818 21.60534668 C16.08138538 27.37981541 19.27617117 33.05054821 22.50976562 38.71118164 C23.57011046 40.5846255 24.6300075 42.45832288 25.68945312 44.33227539 C27.31633578 47.20569785 28.95009671 50.07438625 30.60058594 52.93432617 C32.29445969 55.87206375 33.96601282 58.82162029 35.63476562 61.77368164 C36.40554443 63.08900879 36.40554443 63.08900879 37.19189453 64.4309082 C40.40746804 70.17559683 42.11330981 75.31275749 41.88476562 81.96118164 C39.16405802 91.18135742 32.51974646 95.05929535 24.57226562 99.46118164 C23.65727295 99.97600098 22.74228027 100.49082031 21.79956055 101.02124023 C12.7803426 106.07346449 3.68076385 110.97964468 -5.41992188 115.88305664 C-10.27453097 118.50116423 -15.10943766 121.15190156 -19.92773438 123.83618164 C-20.62842041 124.22652588 -21.32910645 124.61687012 -22.05102539 125.01904297 C-23.55488628 125.85763517 -25.05853902 126.6966007 -26.56201172 127.53588867 C-40.79901626 135.48345346 -55.04428692 143.41560309 -69.36523438 151.21118164 C-70.34637207 151.74783447 -71.32750977 152.2844873 -72.33837891 152.83740234 C-86.55373216 160.54660293 -86.55373216 160.54660293 -92.11523438 159.96118164 C-92.89898437 159.89930664 -93.68273437 159.83743164 -94.49023438 159.77368164 C-102.03263348 157.43912954 -105.26283428 152.74419577 -108.89550781 146.10595703 C-109.44239258 145.06818115 -109.98927734 144.03040527 -110.55273438 142.96118164 C-111.14473633 141.87119873 -111.73673828 140.78121582 -112.34667969 139.65820312 C-113.61746078 137.31811834 -114.88247752 134.97574302 -116.14013672 132.62866211 C-119.15276046 127.01792013 -122.25122784 121.45448246 -125.3369751 115.88375854 C-126.35997261 114.03319995 -127.37875 112.18038575 -128.39599609 110.32666016 C-131.34889441 104.94750226 -134.31673886 99.58048632 -137.38476562 94.26586914 C-137.86333008 93.43047607 -138.34189453 92.59508301 -138.83496094 91.734375 C-139.70027577 90.22919918 -140.57523436 88.72950629 -141.46191406 87.23681641 C-144.13513309 82.56679783 -144.13513309 82.56679783 -144.04956055 79.96240234 C-142.64323514 76.95021281 -140.59925298 76.1851199 -137.69335938 74.63305664 C-136.53771484 74.00657227 -135.38207031 73.38008789 -134.19140625 72.73461914 C-132.91607138 72.06003455 -131.64067914 71.38555842 -130.36523438 70.71118164 C-129.04741836 70.00165152 -127.73037181 69.29069058 -126.4140625 68.57836914 C-123.67613458 67.09817996 -120.93498213 65.62423329 -118.19140625 64.15454102 C-112.56674975 61.13560495 -106.98335153 58.04270281 -101.39953613 54.94909668 C-98.39009019 53.28285559 -95.37749241 51.62233177 -92.36523438 49.96118164 C-91.15688621 49.29454186 -89.94855287 48.6278752 -88.74023438 47.96118164 C-86.32356771 46.62784831 -83.90690104 45.29451497 -81.49023438 43.96118164 C-80.89212952 43.63119171 -80.29402466 43.30120178 -79.67779541 42.96121216 C-78.46926219 42.29443731 -77.2607254 41.62766892 -76.05218506 40.96090698 C-73.03438082 39.29594833 -70.01663823 37.63087815 -66.99902344 35.96557617 C-61.52557218 32.9451391 -56.05169419 29.92549016 -50.57545471 26.91011047 C-48.72711172 25.89224716 -46.8790401 24.87389251 -45.03100586 23.85546875 C-42.60963283 22.52113945 -40.18713408 21.18888538 -37.76391602 19.85791016 C-31.77014103 16.56114715 -25.80476356 13.22292397 -19.87695312 9.80883789 C-18.71596508 9.14403424 -17.55483499 8.47947855 -16.39355469 7.81518555 C-14.21631045 6.5661818 -12.04475021 5.30720063 -9.87988281 4.03686523 C-8.43210449 3.20856201 -8.43210449 3.20856201 -6.95507812 2.36352539 C-6.11323975 1.87360107 -5.27140137 1.38367676 -4.40405273 0.87890625 C-2.11523438 -0.03881836 -2.11523438 -0.03881836 0 0 Z M-73.67773438 60.77368164 C-77.6500869 66.91383717 -80.00139421 73.6187144 -79.11523438 80.96118164 C-77.18525144 89.03312283 -73.97219076 95.10417087 -67.11523438 99.96118164 C-60.34043755 103.39724957 -53.89611137 105.31922786 -46.41992188 103.19555664 C-36.45164129 99.84621436 -31.85015685 95.31115513 -27.11523438 85.96118164 C-24.81196116 78.70656062 -25.87390143 72.1001611 -28.92773438 65.25024414 C-32.89252597 57.60758666 -39.12198741 53.6255973 -47.11523438 50.96118164 C-57.26950483 49.58521703 -67.08486942 52.63051429 -73.67773438 60.77368164 Z " fill="#000000" transform="translate(175.115234375,129.038818359375)"/>
<path d="M0 0 C5.05129021 2.56643872 9.9525855 5.39658763 14.859375 8.2265625 C16.66690496 9.25057793 18.47551725 10.27268504 20.28515625 11.29296875 C23.12815455 12.89723385 25.96968178 14.50378586 28.80639648 16.11914062 C36.20458642 20.3259906 43.6704536 24.39454632 51.171875 28.4140625 C60.6140547 33.4738976 70.01085161 38.60183146 79.36035156 43.83056641 C84.45962365 46.67910468 89.56625749 49.51441888 94.671875 52.3515625 C95.80141602 52.97973877 96.93095703 53.60791504 98.09472656 54.25512695 C104.30787852 57.70798839 110.52782543 61.14791593 116.7578125 64.5703125 C118.0718628 65.29279858 119.38590906 66.01529201 120.69995117 66.73779297 C123.20392078 68.11439148 125.7095213 69.48795764 128.21606445 70.85986328 C147.90104494 81.6787718 147.90104494 81.6787718 149.859375 88.2265625 C151.61990346 97.97387859 148.28376269 105.31088363 142.859375 113.2265625 C141.869375 113.7215625 141.869375 113.7215625 140.859375 114.2265625 C138.79418945 113.35302734 138.79418945 113.35302734 136.22265625 111.9375 C135.26488281 111.41478516 134.30710937 110.89207031 133.3203125 110.35351562 C132.28132812 109.77537109 131.24234375 109.19722656 130.171875 108.6015625 C129.09550781 108.01052734 128.01914062 107.41949219 126.91015625 106.81054688 C118.7422132 102.3114988 110.62554133 97.7218927 102.52001953 93.11157227 C94.5642453 88.59578408 86.5334614 84.22796652 78.48168945 79.88623047 C70.41450522 75.53493178 62.39365727 71.10658094 54.390625 66.63867188 C49.27925689 63.78719105 44.16291061 60.94465785 39.046875 58.1015625 C37.33213989 57.14854248 37.33213989 57.14854248 35.58276367 56.17626953 C26.58472308 51.17733201 17.57346474 46.20257637 8.55859375 41.23406982 C-4.69232382 33.93031169 -17.91911345 26.58339728 -31.140625 19.2265625 C-29.27171071 11.1529816 -25.06855564 3.84518293 -18.140625 -0.7734375 C-11.70775321 -2.9177281 -6.22091164 -2.9002515 0 0 Z " fill="#000000" transform="translate(362.140625,1.7734375)"/>
<path d="M0 0 C8.19225533 9.21264301 11.26336524 19.26008773 11.1953125 31.46875 C9.90927878 43.31961988 4.74934176 53.40922623 -4.5546875 60.96875 C-14.84374192 67.82811962 -24.69622494 69.3157459 -36.8046875 68.46875 C-48.46966301 66.10331464 -56.79812699 59.93562947 -63.8046875 50.46875 C-69.85521641 40.61072314 -71.15940273 30.11429627 -69.375 18.7265625 C-66.48172998 7.54639562 -59.5761388 -1.4917524 -49.8046875 -7.53125 C-32.50777022 -15.81835243 -13.99377555 -13.49881886 0 0 Z " fill="#000000" transform="translate(261.8046875,375.53125)"/>
<path d="M0 0 C14.03055778 6.71699144 27.57535882 14.31758484 41.16552734 21.87109375 C46.6702493 24.92936937 52.18561221 27.968332 57.70059204 31.00805664 C60.7175349 32.67117946 63.73372797 34.33566097 66.75 36 C67.95832977 36.66667312 69.16666311 37.33333979 70.375 38 C106.625 58 106.625 58 108.4372406 58.99986267 C109.64643207 59.66699893 110.85563008 60.33412335 112.06483459 61.00123596 C115.07259193 62.66062112 118.08023802 64.32020724 121.08764648 65.98022461 C126.6805777 69.06711517 132.27453555 72.15209533 137.87234497 75.23013306 C140.47700562 76.66250125 143.08105286 78.09598264 145.68505859 79.52954102 C146.91017816 80.20359575 148.13558817 80.87712292 149.36132812 81.55004883 C157.31355041 85.91599656 165.18640786 90.39089342 173 95 C172.38737369 97.82080379 171.52845191 100.13808856 170.15234375 102.671875 C169.79462891 103.33574219 169.43691406 103.99960938 169.06835938 104.68359375 C168.69517578 105.36550781 168.32199219 106.04742187 167.9375 106.75 C167.56044922 107.44738281 167.18339844 108.14476562 166.79492188 108.86328125 C165.86726612 110.57768302 164.93416546 112.28913661 164 114 C160.1885881 114 159.22488229 113.85261416 156.0859375 112.1640625 C155.33505859 111.76485596 154.58417969 111.36564941 153.81054688 110.9543457 C152.60495117 110.29631958 152.60495117 110.29631958 151.375 109.625 C150.52744141 109.17020264 149.67988281 108.71540527 148.80664062 108.24682617 C146.19834806 106.84208125 143.59780379 105.42403695 141 104 C140.26942383 103.59958496 139.53884766 103.19916992 138.78613281 102.78662109 C134.38316822 100.36509339 129.9962151 97.91539239 125.61181641 95.46044922 C120.47594971 92.58862696 115.33122862 89.73270898 110.1875 86.875 C108.47119385 85.92125488 108.47119385 85.92125488 106.72021484 84.94824219 C94.71347042 78.27836156 82.68598352 71.64618573 70.65722656 65.01611328 C64.60375462 61.6793362 58.55199958 58.33944651 52.5 55 C50.09767349 53.67444792 47.69532945 52.34892762 45.29296875 51.0234375 C44.69710464 50.69467117 44.10124054 50.36590485 43.48731995 50.0271759 C40.39099261 48.31887085 37.29449952 46.61086701 34.19775391 44.90332031 C33.24876724 44.3800415 33.24876724 44.3800415 32.28060913 43.84619141 C31.00577511 43.1433049 29.73089336 42.44050496 28.45596313 41.73779297 C25.35684939 40.02936793 22.25877028 38.31912455 19.16308594 36.60449219 C13.86562379 33.67184704 8.56227014 30.75491203 3.21484375 27.9140625 C1.93806763 27.22836182 1.93806763 27.22836182 0.63549805 26.52880859 C-0.90013698 25.70559129 -2.44129614 24.89255519 -3.98901367 24.09228516 C-8.78505777 21.50442825 -8.78505777 21.50442825 -9.80322266 19.11499023 C-10.04810601 16.48294994 -9.48949897 15.41163551 -8.1640625 13.14453125 C-7.55691406 12.08782227 -7.55691406 12.08782227 -6.9375 11.00976562 C-6.504375 10.28466797 -6.07125 9.55957031 -5.625 8.8125 C-5.19960938 8.07580078 -4.77421875 7.33910156 -4.3359375 6.58007812 C-1.21880151 1.21880151 -1.21880151 1.21880151 0 0 Z " fill="#000000" transform="translate(323,34)"/>
<path d="M0 0 C3.84197164 4.19936435 7.6875 9.06812456 7.6875 14.9375 C-12.85416667 26.27083333 -33.39583333 37.60416667 -53.9375 48.9375 C-54.53561493 49.26749496 -55.13372986 49.59748993 -55.74996948 49.93748474 C-56.95840276 50.6042055 -58.16683782 51.27092303 -59.37527466 51.93763733 C-62.39459344 53.60344998 -65.41388134 55.26931854 -68.43310547 56.93530273 C-73.88851007 59.94548077 -79.34410638 62.95530775 -84.80093384 65.96290588 C-86.63255483 66.97251422 -88.46398514 67.98246786 -90.29541016 68.99243164 C-92.70306553 70.32003424 -95.11168996 71.6458548 -97.52099609 72.97045898 C-103.06530537 76.0215571 -108.5983519 79.08961916 -114.10073853 82.21583557 C-116.60976728 83.64113795 -119.1225885 85.05968668 -121.63543701 86.47824097 C-122.82835855 87.15462041 -124.01919671 87.8346887 -125.20782471 88.51858521 C-126.84438461 89.46011779 -128.48842711 90.38860853 -130.1328125 91.31640625 C-131.06367676 91.8482251 -131.99454102 92.38004395 -132.95361328 92.92797852 C-135.3125 93.9375 -135.3125 93.9375 -138.3125 92.9375 C-142.72403139 87.00989304 -144.08607175 80.91975916 -143.72265625 73.6328125 C-142.74316439 67.19615173 -138.66753792 64.22277078 -133.75244141 60.58789062 C-129.13467281 57.46440496 -124.18425526 54.95653664 -119.25 52.375 C-116.91426802 51.13611513 -114.57943104 49.89571588 -112.24609375 48.65234375 C-111.65988251 48.34054169 -111.07367126 48.02873962 -110.46969604 47.70748901 C-104.86070926 44.71545209 -99.33204805 41.59055878 -93.8125 38.4375 C-84.5069008 33.13275706 -75.10712443 28.02176962 -65.66552734 22.96362305 C-59.39718536 19.60380303 -53.1486418 16.21444308 -46.9375 12.75 C-46.24011719 12.36183105 -45.54273437 11.97366211 -44.82421875 11.57373047 C-41.77673125 9.8757438 -38.73173607 8.17355951 -35.69189453 6.46191406 C-32.96451257 4.9270657 -30.23251654 3.40068395 -27.5 1.875 C-26.65711426 1.39716064 -25.81422852 0.91932129 -24.94580078 0.42700195 C-24.15286621 -0.01426025 -23.35993164 -0.45552246 -22.54296875 -0.91015625 C-21.84582764 -1.30211182 -21.14868652 -1.69406738 -20.43041992 -2.09790039 C-13.45255426 -5.27594618 -6.35618195 -3.95762272 0 0 Z " fill="#000000" transform="translate(143.3125,71.0625)"/>
<path d="M0 0 C2.64 5.28 5.28 10.56 8 16 C-3.6057945 22.61486981 -15.23601701 29.16986599 -27 35.5 C-34.84550873 39.7216732 -42.63368132 44.02771907 -50.375 48.4375 C-59.72871274 53.76298917 -69.17504138 58.89844134 -78.66186523 63.98242188 C-84.77666368 67.26070306 -90.87708703 70.55966936 -96.9375 73.9375 C-97.61683594 74.31608154 -98.29617187 74.69466309 -98.99609375 75.0847168 C-102.43495714 77.00414638 -105.87135569 78.92796754 -109.30761719 80.85205078 C-112.36192563 82.56185325 -115.41801394 84.2684455 -118.47488403 85.97366333 C-119.68897821 86.65175353 -120.90243125 87.33099307 -122.11520386 88.01144409 C-123.82136189 88.96870276 -125.52978538 89.92192013 -127.23828125 90.875 C-128.22868408 91.42929688 -129.21908691 91.98359375 -130.23950195 92.5546875 C-132.78339643 93.88659299 -135.31443716 94.99011807 -138 96 C-139.33838733 93.54429825 -140.67086232 91.08570084 -142 88.625 C-142.57234375 87.57699219 -142.57234375 87.57699219 -143.15625 86.5078125 C-146 81.2265625 -146 81.2265625 -146 79 C-144.83726562 78.39414063 -143.67453125 77.78828125 -142.4765625 77.1640625 C-132.10327507 71.74215963 -121.82426625 66.17867555 -111.61181641 60.46044922 C-106.47594971 57.58862696 -101.33122862 54.73270898 -96.1875 51.875 C-95.0432959 51.23916992 -93.8990918 50.60333984 -92.72021484 49.94824219 C-81.33347576 43.62278146 -69.92822443 37.33100621 -58.52038574 31.04370117 C-54.17764148 28.64999882 -49.83650763 26.25339376 -45.49609375 23.85546875 C-39.47034686 20.52651156 -33.4420407 17.20223087 -27.41210938 13.88085938 C-25.14955762 12.63367143 -22.88782883 11.38498931 -20.62695312 10.13476562 C-17.52425948 8.41928946 -14.41876433 6.70899975 -11.3125 5 C-10.39154541 4.48920898 -9.47059082 3.97841797 -8.52172852 3.45214844 C-7.68569092 2.99356445 -6.84965332 2.53498047 -5.98828125 2.0625 C-4.89833862 1.46115234 -4.89833862 1.46115234 -3.78637695 0.84765625 C-2 0 -2 0 0 0 Z " fill="#000000" transform="translate(160,99)"/>
<path d="M0 0 C2.6494299 1.87215642 3.61328019 3.79443735 5.10961914 6.66894531 C5.67793457 7.7448291 6.24625 8.82071289 6.83178711 9.92919922 C7.42620605 11.08081543 8.020625 12.23243164 8.63305664 13.41894531 C9.56485847 15.18885507 10.49666811 16.95876154 11.43032837 18.72769165 C12.36451155 20.49934494 13.29468961 22.27310819 14.22485352 24.046875 C16.71180898 28.7497541 19.28482885 33.40185505 21.88305664 38.04394531 C22.30538574 38.800625 22.72771484 39.55730469 23.1628418 40.33691406 C24.10960554 42.03184228 25.05853576 43.72556014 26.00805664 45.41894531 C23.61700172 47.01298192 21.54164171 48.14800767 18.94555664 49.30175781 C9.5352844 53.56628078 1.02530511 57.80696736 -6.99194336 64.41894531 C-9.61317625 62.06027009 -11.12667027 59.61331096 -12.77709961 56.50878906 C-13.30343994 55.52676514 -13.82978027 54.54474121 -14.37207031 53.53295898 C-15.20484497 51.96058472 -15.20484497 51.96058472 -16.05444336 50.35644531 C-17.2148707 48.18401928 -18.37634042 46.01214975 -19.53881836 43.84082031 C-20.11696289 42.75994141 -20.69510742 41.6790625 -21.29077148 40.56542969 C-22.8554929 37.67132383 -24.45080913 34.79843664 -26.07006836 31.93457031 C-26.53405029 31.11351807 -26.99803223 30.29246582 -27.47607422 29.4465332 C-28.34438886 27.91688868 -29.21740946 26.38990345 -30.09570312 24.8659668 C-32.99194336 19.747355 -32.99194336 19.747355 -32.99194336 16.41894531 C-32.30156982 16.04608398 -31.61119629 15.67322266 -30.89990234 15.2890625 C-27.74261448 13.58322172 -24.58602403 11.87609433 -21.42944336 10.16894531 C-20.3434082 9.58242188 -19.25737305 8.99589844 -18.13842773 8.39160156 C-17.07817383 7.81796875 -16.01791992 7.24433594 -14.92553711 6.65332031 C-13.380354 5.8228418 -13.380354 5.8228418 -11.80395508 4.97558594 C-9.46318204 3.67980812 -7.22082201 2.30593128 -4.96459961 0.87207031 C-1.99194336 -0.58105469 -1.99194336 -0.58105469 0 0 Z " fill="#000000" transform="translate(174.991943359375,260.5810546875)"/>
<path d="M0 0 C4.74209822 2.62328838 6.45901895 5.86339651 8 11 C8.27205228 16.62604122 6.70203754 20.69763204 3 25 C-1.38373454 27.9224897 -4.77777599 28.559524 -10 28 C-15.33739473 26.01155883 -18.45333824 23.09332352 -21 18 C-21.57425085 13.29302583 -21.45554552 9.87855208 -19.25 5.625 C-13.52335348 -1.0560876 -8.37758678 -1.70232563 0 0 Z " fill="#000000" transform="translate(372,149)"/>
<path d="M0 0 C2.87029869 1.79393668 4.49131638 2.98263276 6 6 C6.42071592 9.05920574 6.48514117 11.9467746 6 15 C3.81840855 17.75569447 2.12822506 19.43588747 -1 21 C-5.97067782 21.3751455 -9.05151502 21.15878799 -13 18 C-15.56632517 14.57823311 -15.36435051 11.15359579 -15 7 C-11.75358242 0.04339089 -7.16865857 -1.05643389 0 0 Z " fill="#000000" transform="translate(127,196)"/>
</svg>
