<?xml version="1.0" encoding="UTF-8"?>
<svg version="1.1" xmlns="http://www.w3.org/2000/svg" width="512" height="512">
<path d="M0 0 C0.80223495 -0.00974854 1.60446991 -0.01949707 2.43101501 -0.02954102 C21.41385899 -0.21249827 39.66745608 0.29173635 58.3203125 4.23828125 C59.18269531 4.4202002 60.04507812 4.60211914 60.93359375 4.78955078 C93.08096069 11.87083102 123.74589326 26.52995323 149.3203125 47.23828125 C150.31417969 48.02976563 151.30804688 48.82125 152.33203125 49.63671875 C166.02037894 60.74336162 178.66180516 73.32179415 189.08496094 87.55419922 C190.32550998 89.24536667 191.59078438 90.9157401 192.859375 92.5859375 C199.62243597 101.621606 205.11429153 111.23833697 210.3203125 121.23828125 C210.67335449 121.90633789 211.02639648 122.57439453 211.39013672 123.26269531 C238.41401278 174.98191814 240.66392226 236.92807878 223.72436523 292.04370117 C214.73406794 320.01376729 200.47656484 345.05702441 181.3203125 367.23828125 C180.47082031 368.22957031 179.62132812 369.22085937 178.74609375 370.2421875 C166.79503421 383.85706178 166.79503421 383.85706178 161.1484375 384.4765625 C160.29765625 384.50105469 159.446875 384.52554687 158.5703125 384.55078125 C157.72984375 384.58816406 156.889375 384.62554687 156.0234375 384.6640625 C149.91824338 383.7024062 145.53775205 378.75472648 141.3359375 374.51953125 C140.79426941 373.97977661 140.25260132 373.44002197 139.69451904 372.88391113 C138.55935067 371.75009518 137.42666951 370.61378403 136.29638672 369.47509766 C134.5682776 367.73623369 132.82969565 366.00835573 131.08984375 364.28125 C129.98373282 363.17381813 128.8782421 362.06576636 127.7734375 360.95703125 C127.25573792 360.44338013 126.73803833 359.929729 126.20465088 359.4005127 C122.2856143 355.43011066 120.037481 352.50029671 120.0078125 346.86328125 C120.12593045 342.63187929 120.85179236 339.77649345 123.3203125 336.23828125 C127.06394997 333.0170118 130.33289076 331.74169302 135.09765625 331.0234375 C142.27847176 331.71754093 146.54440212 335.93097324 151.2578125 340.92578125 C151.84626953 341.53228516 152.43472656 342.13878906 153.04101562 342.76367188 C154.47682977 344.24617916 155.89991832 345.74099355 157.3203125 347.23828125 C185.51819621 318.17398212 199.30369426 276.76180476 203.3203125 237.23828125 C202.68528809 237.25922852 202.05026367 237.28017578 201.39599609 237.30175781 C198.49593174 237.38532706 195.59612134 237.43706899 192.6953125 237.48828125 C191.69628906 237.52179688 190.69726562 237.5553125 189.66796875 237.58984375 C183.51954193 237.67127987 179.99522675 237.3506855 175.3203125 233.23828125 C172.41802832 229.93568201 171.40472197 227.35670677 171.0703125 222.92578125 C171.41508701 217.84035722 173.01128155 214.75184829 176.3203125 210.92578125 C179.56922023 208.18451536 182.33745653 208.11699307 186.42578125 208.140625 C187.40869141 208.14384766 188.39160156 208.14707031 189.40429688 208.15039062 C190.42845703 208.15876953 191.45261719 208.16714844 192.5078125 208.17578125 C194.06145508 208.18254883 194.06145508 208.18254883 195.64648438 208.18945312 C198.20448516 208.20124115 200.76236983 208.2176961 203.3203125 208.23828125 C198.49174057 169.49193572 186.17155576 126.50114495 157.3203125 98.23828125 C156.9485791 98.65190918 156.5768457 99.06553711 156.19384766 99.49169922 C143.01824633 113.95034832 143.01824633 113.95034832 135.5703125 114.46484375 C130.21609385 113.92570368 126.66676655 112.61925976 122.8828125 108.73828125 C120.82103597 105.4394388 120.13345689 102.75462861 120.0078125 98.92578125 C119.97042969 98.18714844 119.93304688 97.44851562 119.89453125 96.6875 C120.93281595 90.71498158 125.79673248 86.51530082 130.0078125 82.48828125 C133.60310555 79.20688584 133.60310555 79.20688584 136.3203125 75.23828125 C135.50240234 74.88056641 135.50240234 74.88056641 134.66796875 74.515625 C131.73194568 72.91815488 129.34989522 70.91297382 126.7578125 68.80078125 C97.58941791 45.81270447 62.37088023 35.86319253 26.3203125 30.23828125 C26.34387817 31.14537842 26.34387817 31.14537842 26.36791992 32.07080078 C26.4306313 34.83486421 26.46941661 37.59877746 26.5078125 40.36328125 C26.53294922 41.31460938 26.55808594 42.2659375 26.58398438 43.24609375 C26.64059006 48.68023924 26.44202547 52.57050664 23.3203125 57.23828125 C18.39386418 61.68410046 15.3689247 62.58915107 8.86328125 62.5234375 C4.21809478 62.00254869 1.49886184 59.57938912 -1.4921875 56.17578125 C-3.52926325 52.85213135 -3.80040271 50.15629043 -3.77734375 46.3515625 C-3.77412109 45.41376953 -3.77089844 44.47597656 -3.76757812 43.50976562 C-3.75919922 42.53330078 -3.75082031 41.55683594 -3.7421875 40.55078125 C-3.73767578 39.56271484 -3.73316406 38.57464844 -3.72851562 37.55664062 C-3.71673053 35.11712651 -3.70027761 32.67773436 -3.6796875 30.23828125 C-41.99668287 36.32678687 -78.98262342 47.25290988 -108.953125 73.03515625 C-111.6796875 75.23828125 -111.6796875 75.23828125 -113.6796875 75.23828125 C-109.690135 79.90690652 -105.63054405 84.38301146 -101.16015625 88.59765625 C-97.70333562 92.42843373 -97.23956609 95.91553479 -97.36328125 100.921875 C-98.01830957 105.71732923 -100.21400873 109.04989306 -103.9921875 112.11328125 C-109.04792687 114.22963726 -113.48911226 114.74447619 -118.78027344 113.13647461 C-122.59423064 111.33293367 -125.27133439 108.15488087 -128.1171875 105.11328125 C-128.75333984 104.45457031 -129.38949219 103.79585938 -130.04492188 103.1171875 C-131.60187847 101.5016987 -133.14589665 99.87572817 -134.6796875 98.23828125 C-162.88327971 127.30846428 -176.59483038 168.70188484 -180.6796875 208.23828125 C-179.71929565 208.21471558 -179.71929565 208.21471558 -178.73950195 208.19067383 C-175.82382119 208.1281101 -172.90828195 208.08922317 -169.9921875 208.05078125 C-168.98478516 208.02564453 -167.97738281 208.00050781 -166.93945312 207.97460938 C-157.6254486 207.88239151 -157.6254486 207.88239151 -153.6796875 211.23828125 C-150.32521172 214.96547656 -148.81167019 217.48951057 -148.4296875 222.55078125 C-148.79252156 227.90258362 -150.26074801 230.95777488 -154.2421875 234.55078125 C-157.73872556 236.97146145 -159.47439199 237.36015076 -163.6875 237.3359375 C-164.67363281 237.33271484 -165.65976563 237.32949219 -166.67578125 237.32617188 C-167.70832031 237.31779297 -168.74085938 237.30941406 -169.8046875 237.30078125 C-171.36509766 237.29401367 -171.36509766 237.29401367 -172.95703125 237.28710938 C-175.53130712 237.27530077 -178.10546896 237.258832 -180.6796875 237.23828125 C-176.48832606 275.72724668 -163.22488068 319.27522618 -134.6796875 347.23828125 C-134.0906665 346.61783936 -134.0906665 346.61783936 -133.48974609 345.98486328 C-131.68884473 344.10034675 -129.87209277 342.23188104 -128.0546875 340.36328125 C-127.43722656 339.71230469 -126.81976563 339.06132812 -126.18359375 338.390625 C-122.04044316 334.16025019 -118.71369073 331.46074466 -112.5546875 331.12109375 C-107.71655306 331.74601945 -104.47281914 332.97442379 -100.6796875 336.23828125 C-97.78566814 340.38637566 -97.31697932 343.98594216 -97.18359375 348.89453125 C-98.42791755 354.77322636 -103.26401339 359.12081857 -107.3984375 363.22265625 C-107.93819214 363.76432434 -108.47794678 364.30599243 -109.03405762 364.86407471 C-110.16787357 365.99924308 -111.30418472 367.13192424 -112.44287109 368.26220703 C-114.18173506 369.99031615 -115.90961302 371.7288981 -117.63671875 373.46875 C-118.74415062 374.57486093 -119.85220239 375.68035165 -120.9609375 376.78515625 C-121.47458862 377.30285583 -121.98823975 377.82055542 -122.51745605 378.35394287 C-126.70194753 382.4842992 -129.64967217 384.52130282 -135.5546875 384.61328125 C-143.8959627 384.37009538 -148.4136677 378.88322204 -153.97265625 373.19921875 C-158.94192401 367.87100932 -163.31182608 362.05998716 -167.6796875 356.23828125 C-168.10781738 355.67625 -168.53594727 355.11421875 -168.97705078 354.53515625 C-176.23026979 344.97954952 -182.14444555 334.87060705 -187.6796875 324.23828125 C-188.03272949 323.57022461 -188.38577148 322.90216797 -188.74951172 322.21386719 C-209.46833785 282.56146561 -216.63708123 234.34781223 -209.6796875 190.23828125 C-209.5343457 189.3143457 -209.38900391 188.39041016 -209.23925781 187.43847656 C-201.6640366 141.39746143 -180.86960757 100.73237836 -148.6796875 67.23828125 C-148.16148437 66.69284668 -147.64328125 66.14741211 -147.109375 65.58544922 C-139.21634839 57.30603368 -130.87629877 50.03577654 -121.6796875 43.23828125 C-120.82890625 42.6040625 -119.978125 41.96984375 -119.1015625 41.31640625 C-85.16558694 16.81957621 -42.08554338 0.42907461 0 0 Z " fill="#000000" transform="translate(244.6796875,63.76171875)"/>
<path d="M0 0 C3.76780923 2.31935702 6.11145731 4.19041994 7.79296875 8.30078125 C9.16545408 14.37893055 8.91771065 17.69779578 5.79296875 23.30078125 C2.27809505 27.73451788 -2.31143603 29.36681104 -7.39453125 31.48828125 C-8.35254639 31.8968335 -9.31056152 32.30538574 -10.29760742 32.72631836 C-13.92779691 34.26635697 -17.56635101 35.78577188 -21.20703125 37.30078125 C-22.41752136 37.8049054 -22.41752136 37.8049054 -23.65246582 38.31921387 C-31.9691977 41.78170741 -40.2887883 45.23725918 -48.6159668 48.67456055 C-49.49771576 49.03865021 -50.37946472 49.40273987 -51.28793335 49.77786255 C-52.96401534 50.46962421 -54.64037529 51.1607129 -56.31704712 51.8510437 C-60.3045516 53.4810377 -60.3045516 53.4810377 -64.20703125 55.30078125 C-64.71398774 57.58125808 -64.71398774 57.58125808 -65.01953125 60.30078125 C-66.57963969 69.63724413 -71.57833402 77.8270003 -79.015625 83.73828125 C-87.57627019 89.52575969 -96.98512442 91.44086718 -107.20703125 90.30078125 C-117.49184645 88.13284028 -125.49739239 83.51301296 -131.58203125 74.86328125 C-137.69691233 64.68879857 -139.15928212 53.89289101 -136.515625 42.2578125 C-132.93271891 32.58846344 -126.42639482 25.1192876 -117.31640625 20.30078125 C-107.9914833 16.08429435 -97.40378433 16.05869002 -87.74707031 19.18066406 C-85.20703125 20.30078125 -85.20703125 20.30078125 -83.21362305 22.06005859 C-80.53309529 24.36982581 -78.66352621 25.43743905 -75.20703125 26.30078125 C-68.48640813 25.26151602 -62.2202328 21.69403607 -56.14453125 18.80078125 C-54.35373768 17.98810957 -52.56074636 17.18026399 -50.765625 16.37719727 C-47.20896044 14.78220319 -43.66144194 13.16937046 -40.12060547 11.53955078 C-33.71521357 8.6036881 -27.23901653 5.87995606 -20.70703125 3.23828125 C-19.2528479 2.62339844 -19.2528479 2.62339844 -17.76928711 1.99609375 C-11.7241167 -0.46214887 -6.46703844 -2.04884935 0 0 Z " fill="#000000" transform="translate(357.20703125,232.69921875)"/>
</svg>
